<?xml version="1.0" encoding="UTF-8"?>
<svg id="Laag_1" data-name="Laag 1" xmlns="http://www.w3.org/2000/svg" viewBox="0 0 800.03 191.05">
  <defs>
    <style>
      .cls-1 {
        fill: #9dc16c;
      }

      .cls-2 {
        fill: #1a311b;
      }
    </style>
  </defs>
  <g>
    <path class="cls-2" d="M186.9,74.54c0-8.59,4.57-13.16,13.16-13.16h12.06c8.5,0,13.16,4.57,13.16,13.16v9.5c0,.91-.55,1.46-1.46,1.46h-9.14c-1.01,0-1.46-.55-1.46-1.46v-6.94c0-2.38-1.28-3.65-3.65-3.65h-6.58c-2.47,0-3.65,1.28-3.65,3.65v41.66c0,2.47,1.28,3.65,3.65,3.65h6.58c2.38,0,3.65-1.19,3.65-3.65v-12.24h-4.75c-1,0-1.46-.55-1.46-1.46v-9.14c0-1,.46-1.46,1.46-1.46h15.35c.91,0,1.46.46,1.46,1.46v25.4c0,8.59-4.66,13.16-13.16,13.16h-12.06c-8.59,0-13.16-4.57-13.16-13.16v-46.78Z"/>
    <path class="cls-2" d="M271.96,96.83c0,6.12-2.28,10.14-6.67,12.06l6.3,23.94c.27,1.1-.27,1.64-1.28,1.64h-9.5c-.91,0-1.37-.46-1.55-1.28l-6.12-23.21h-6.3v23.02c0,.91-.55,1.46-1.46,1.46h-9.5c-.91,0-1.46-.55-1.46-1.46V62.84c0-.91.55-1.46,1.46-1.46h22.93c8.59,0,13.16,4.57,13.16,13.16v22.29ZM255.88,97.93c2.38,0,3.65-1.28,3.65-3.65v-17.18c0-2.38-1.28-3.65-3.65-3.65h-9.04v24.49h9.04Z"/>
    <path class="cls-2" d="M317.54,71.98c0,.91-.37,1.55-1.46,1.55h-22.84v18.27h17.45c.91,0,1.46.55,1.46,1.55v9.04c0,1.01-.55,1.55-1.46,1.55h-17.45v18.46h22.84c1.1,0,1.46.46,1.46,1.46v9.14c0,.91-.37,1.46-1.46,1.46h-33.62c-.82,0-1.37-.55-1.37-1.46V62.84c0-.91.55-1.46,1.37-1.46h33.62c1.1,0,1.46.55,1.46,1.46v9.14Z"/>
    <path class="cls-2" d="M363.13,71.98c0,.91-.37,1.55-1.46,1.55h-22.84v18.27h17.45c.91,0,1.46.55,1.46,1.55v9.04c0,1.01-.55,1.55-1.46,1.55h-17.45v18.46h22.84c1.1,0,1.46.46,1.46,1.46v9.14c0,.91-.37,1.46-1.46,1.46h-33.62c-.82,0-1.37-.55-1.37-1.46V62.84c0-.91.55-1.46,1.37-1.46h33.62c1.1,0,1.46.55,1.46,1.46v9.14Z"/>
    <path class="cls-2" d="M409.81,61.38c.91,0,1.46.55,1.46,1.46v70.17c0,.91-.55,1.46-1.46,1.46h-9.04c-.82,0-1.37-.37-1.64-1.19l-13.98-39.01h-.46v38.74c0,.91-.46,1.46-1.46,1.46h-9.5c-.91,0-1.46-.55-1.46-1.46V62.84c0-.91.55-1.46,1.46-1.46h9.04c.82,0,1.37.37,1.64,1.19l13.89,38.83h.55v-38.56c0-.91.46-1.46,1.46-1.46h9.5Z"/>
    <path class="cls-2" d="M470.65,61.38c1.19,0,1.83.64,1.83,1.83v69.44c0,1.19-.64,1.83-1.83,1.83h-8.5c-1.19,0-1.83-.64-1.83-1.83v-41.11h-.64l-9.04,41.3c-.28,1.1-.91,1.64-2.01,1.64h-4.48c-1.09,0-1.74-.55-2.01-1.64l-9.04-41.3h-.64v41.11c0,1.19-.64,1.83-1.83,1.83h-8.41c-1.19,0-1.83-.64-1.83-1.83V63.21c0-1.19.64-1.83,1.83-1.83h12.06c1.1,0,1.74.55,2.01,1.64l10.14,45.5,10.14-45.5c.27-1.1.91-1.64,2.01-1.64h12.06Z"/>
    <path class="cls-2" d="M514.14,134.47c-.82,0-1.28-.46-1.46-1.28l-2.56-13.34h-16.26l-2.47,13.34c-.18.82-.64,1.28-1.46,1.28h-9.78c-1,0-1.46-.55-1.19-1.55l15.17-70.26c.18-.91.73-1.28,1.55-1.28h12.7c.82,0,1.37.37,1.55,1.28l15.17,70.26c.18,1-.18,1.55-1.28,1.55h-9.68ZM501.98,77.37l-5.85,31.89h11.7l-5.85-31.89Z"/>
    <path class="cls-2" d="M559.27,61.38c1,0,1.46.55,1.46,1.46v9.14c0,.91-.46,1.46-1.46,1.46h-10.6v59.57c0,1-.46,1.46-1.46,1.46h-9.5c-.91,0-1.46-.46-1.46-1.46v-59.57h-10.6c-.91,0-1.46-.55-1.46-1.46v-9.14c0-.91.55-1.46,1.46-1.46h33.62Z"/>
    <path class="cls-2" d="M602.2,61.38c1,0,1.46.55,1.46,1.46v9.14c0,.91-.46,1.46-1.46,1.46h-10.6v59.57c0,1-.46,1.46-1.46,1.46h-9.5c-.91,0-1.46-.46-1.46-1.46v-59.57h-10.6c-.91,0-1.46-.55-1.46-1.46v-9.14c0-.91.55-1.46,1.46-1.46h33.62Z"/>
    <path class="cls-2" d="M646.51,71.98c0,.91-.36,1.55-1.46,1.55h-22.84v18.27h17.45c.91,0,1.46.55,1.46,1.55v9.04c0,1.01-.55,1.55-1.46,1.55h-17.45v18.46h22.84c1.1,0,1.46.46,1.46,1.46v9.14c0,.91-.36,1.46-1.46,1.46h-33.62c-.82,0-1.37-.55-1.37-1.46V62.84c0-.91.55-1.46,1.37-1.46h33.62c1.1,0,1.46.55,1.46,1.46v9.14Z"/>
    <path class="cls-2" d="M692.28,96.83c0,6.12-2.28,10.14-6.67,12.06l6.3,23.94c.28,1.1-.27,1.64-1.28,1.64h-9.5c-.91,0-1.37-.46-1.55-1.28l-6.12-23.21h-6.3v23.02c0,.91-.55,1.46-1.46,1.46h-9.5c-.91,0-1.46-.55-1.46-1.46V62.84c0-.91.55-1.46,1.46-1.46h22.93c8.59,0,13.16,4.57,13.16,13.16v22.29ZM676.2,97.93c2.38,0,3.65-1.28,3.65-3.65v-17.18c0-2.38-1.28-3.65-3.65-3.65h-9.05v24.49h9.05Z"/>
  </g>
  <g>
    <g>
      <path class="cls-2" d="M56.64,136.81c-.76,3.42-1.13,5.12-1.89,8.53,1.55-.02,2.32-.05,3.87-.12-.77-3.36-1.15-5.05-1.92-8.42-.02,0-.04,0-.06,0Z"/>
      <path class="cls-2" d="M121.69,118.9c-.73.37-1.1.55-1.84.91v5.27c.77-.38,1.16-.57,1.93-.95,1.56-.78,1.92-1.87,1.92-3.65,0-2.02-.48-2.35-2.01-1.58Z"/>
      <path class="cls-2" d="M142.88,73.25c-28.11,42.56-65.66,43.31-75.39,42.72v-15.56s0-.02,0-.03c0-3.75-2.38-6.78-5.31-6.78-1.13,0-2.17.45-3.03,1.22L2.66,136.47c-1.64,1.21-2.66,3.45-2.66,5.87s1.01,4.66,2.66,5.87l56.87,41.93c1.64,1.21,3.67,1.21,5.31,0,1.64-1.21,2.66-3.45,2.66-5.87v-12.54c106.92-16.49,75.39-98.48,75.39-98.48ZM45.5,153.45c-2.03-.11-3.05-.18-5.06-.36v-11.55s-.04,0-.06,0c-1.67,3.24-2.5,4.85-4.15,8.04-.97-.12-1.45-.18-2.41-.32-1.65-3.63-2.47-5.46-4.1-9.15-.02,0-.04,0-.06-.01v11.55c-1.97-.35-2.95-.55-4.9-.97v-22.22c2.04.45,3.07.65,5.14,1.02,2.03,5.18,3.05,7.74,5.1,12.84.02,0,.04,0,.06,0,2.06-4.54,3.1-6.83,5.18-11.46,2.1.2,3.16.27,5.28.38v22.22ZM60.52,153.41c-.38-1.66-.58-2.49-.96-4.15-2.3.12-3.44.15-5.73.17-.37,1.68-.56,2.52-.93,4.2-2.26,0-3.39-.02-5.63-.1,2.09-7.37,4.17-14.75,6.25-22.12,2.57-.02,3.86-.06,6.44-.19,2.09,7.25,4.2,14.5,6.31,21.74-2.3.23-3.45.32-5.75.45ZM80.43,133.46c-1.91.38-2.86.55-4.77.86v17.41c-2.27.37-3.41.54-5.68.82v-17.41c-1.91.24-2.86.34-4.77.51v-4.81c5.07-.43,10.23-1.18,15.22-2.19v4.81ZM96.3,129.44c-1.9.59-2.85.86-4.75,1.39v17.41c-2.26.62-3.4.91-5.67,1.45v-17.41c-1.91.45-2.86.66-4.77,1.04v-4.81c5.1-1,10.23-2.32,15.19-3.88v4.81ZM111.81,141.18c-5.33,2.26-8.03,3.27-13.44,5.02v-22.22c5.31-1.72,7.96-2.71,13.19-4.92v4.78c-3,1.27-4.51,1.86-7.54,2.97v3.98c2.2-.81,3.3-1.23,5.5-2.12v4.17c-2.19.89-3.29,1.31-5.5,2.12v4.57c3.13-1.14,4.69-1.76,7.79-3.07v4.72ZM124.35,135.25c-1.23-2.68-1.85-4.02-3.09-6.73-.57.28-.85.42-1.41.7v8.31c-2.21,1.07-3.31,1.59-5.54,2.57v-22.22c3.03-1.34,4.53-2.05,7.53-3.56,5.2-2.61,7.25-1.16,7.25,2.85,0,2.79-1.03,5.5-3.03,7.55,1.63,2.97,2.45,4.45,4.06,7.37-2.29,1.31-3.45,1.94-5.76,3.16Z"/>
    </g>
    <g>
      <path class="cls-2" d="M43.84,48.96c-.9.37-1.35.56-2.25.94v6.3c.94-.4,1.42-.6,2.36-.99,1.92-.79,2.37-2.01,2.37-4.13,0-2.42-.59-2.89-2.48-2.12Z"/>
      <path class="cls-2" d="M144.57,42.84L87.7.91c-1.64-1.21-3.67-1.21-5.31,0-1.64,1.21-2.66,3.45-2.66,5.87v12.54C-27.19,35.81,4.34,117.8,4.34,117.8c28.11-42.56,65.66-43.31,75.39-42.72v15.56s0,.02,0,.03c0,3.75,2.38,6.78,5.31,6.78,1.13,0,2.17-.45,3.03-1.21l56.49-41.65c1.64-1.21,2.66-3.45,2.66-5.87s-1.01-4.66-2.66-5.87ZM31.24,75.88c-2.13,1.08-3.19,1.64-5.31,2.8v-1.39s-.04.02-.07.04c-1.21,1.77-3.17,3.52-4.97,4.6-4.53,2.69-8.45,1.33-8.26-4.41v-7.65c-.1-6.68,4.25-12.69,9.66-16.03,2.78-1.72,7.94-2.71,8.95,1.62-1.62,1.39-3.22,2.81-4.8,4.24-.83-1.56-2.01-1.55-3.58-.71-2.48,1.34-3.76,4.02-3.77,6.8v7.5c0,2.96,1.32,3.36,3.62,2.03,1.22-.71,2.06-1.53,2.82-2.98v-3.22c-1.01.56-1.52.84-2.53,1.42v-4.28c2.72-1.53,5.46-3.01,8.23-4.44,0,4.68,0,9.37,0,14.05ZM47.14,68.8c-1.27-2.8-2.54-5.6-3.81-8.4-.7.29-1.04.43-1.74.73,0,3.31,0,6.61,0,9.92-2.26.98-4.5,2-6.73,3.05,0-8.84,0-17.69,0-26.53,3.03-1.42,6.08-2.77,9.17-4.06,4.47-1.96,9-.82,9.02,4.64,0,3.1-1.42,6.3-3.79,8.37,1.71,3.23,3.41,6.47,5.09,9.71-2.42.82-4.81,1.68-7.21,2.58ZM56.54,65.51v-26.53c5.28-1.62,10.57-2.98,15.98-4.11v5.71c-3.07.64-6.12,1.35-9.16,2.13v4.76c2.21-.59,4.44-1.13,6.67-1.61v4.98c-2.23.48-4.46,1.02-6.67,1.61v5.45c3.14-.81,6.28-1.53,9.46-2.19,0,2.25,0,3.38,0,5.64-5.51,1.13-10.9,2.52-16.28,4.17ZM92,58.95c-5.43.33-10.77.95-16.13,1.83,0-8.84,0-17.69,0-26.53,5.27-.87,10.51-1.47,15.84-1.81v5.71c-3.03.16-6.05.43-9.06.8v4.76c2.19-.28,4.4-.49,6.6-.65v4.98c-2.2.16-4.41.37-6.6.65v5.45c3.11-.35,6.22-.63,9.35-.82v5.64ZM113.45,59.73c-1.78-.23-2.67-.32-4.47-.48-2.66-4.77-5.36-9.51-8.11-14.23-.03,0-.04,0-.07,0,0,4.6,0,9.2,0,13.8-2.31-.04-3.48-.04-5.81.03v-26.53c1.96-.05,2.93-.06,4.87-.04,2.67,4.48,5.27,8.99,7.84,13.52.03,0,.04,0,.07,0v-13.18c2.29.18,3.42.29,5.68.58v26.53Z"/>
    </g>
  </g>
  <g>
    <path class="cls-2" d="M148.38,20.82c-1.26-1.26-2.93-1.95-4.7-1.95s-3.45.69-4.7,1.95c-1.26,1.26-1.95,2.93-1.95,4.7s.69,3.45,1.95,4.7c1.26,1.26,2.93,1.95,4.7,1.95s3.45-.69,4.7-1.95c1.26-1.26,1.95-2.93,1.95-4.7s-.69-3.45-1.95-4.7ZM143.68,31.07c-3.06,0-5.55-2.49-5.55-5.55s2.49-5.55,5.55-5.55,5.55,2.49,5.55,5.55-2.49,5.55-5.55,5.55Z"/>
    <path class="cls-2" d="M145.2,25.69c.86-.37,1.3-.98,1.3-1.83,0-.64-.28-1.14-.83-1.52-.55-.37-1.3-.56-2.24-.56-.63,0-1.34.07-2.14.2v7.24h1.05v-3.2h1.33c1.07,0,1.76,1.07,2.06,3.2h1.05c-.18-1.11-.38-1.92-.61-2.41-.23-.49-.55-.87-.95-1.13ZM143.61,25.22h-1.28v-2.54c.29-.03.65-.05,1.1-.05,1.37,0,2.06.43,2.06,1.28s-.63,1.3-1.88,1.3Z"/>
  </g>
  <g>
    <path class="cls-1" d="M201.25,149.8c0-.46.27-.73.73-.73h4.71c.55,0,.78.27.78.73v35.08c0,.46-.23.73-.78.73h-4.71c-.46,0-.73-.27-.73-.73v-14.53h-5.85v14.53c0,.46-.27.73-.73.73h-4.71c-.55,0-.78-.27-.78-.73v-35.08c0-.46.23-.73.78-.73h4.71c.46,0,.73.27.73.73v14.53h5.85v-14.53Z"/>
    <path class="cls-1" d="M230.25,158.93c0,.46-.18.78-.73.78h-11.28v7.03h8.59c.46,0,.73.28.73.78v4.52c0,.5-.27.78-.73.78h-8.59v6.76h11.28c.55,0,.73.23.73.73v4.57c0,.46-.18.73-.73.73h-16.81c-.41,0-.68-.27-.68-.73v-30.51c0-.46.27-.73.68-.73h16.81c.55,0,.73.28.73.73v4.57Z"/>
    <path class="cls-1" d="M250.53,153.63c.5,0,.73.28.73.73v4.57c0,.46-.23.73-.73.73h-5.3v25.22c0,.5-.23.73-.73.73h-4.75c-.46,0-.73-.23-.73-.73v-25.22h-5.3c-.46,0-.73-.28-.73-.73v-4.57c0-.46.27-.73.73-.73h16.81Z"/>
    <path class="cls-1" d="M278.03,153.63c4.29,0,6.58,2.28,6.58,6.58v3.01c0,.46-.23.73-.73.73h-4.61c-.46,0-.73-.28-.73-.73v-1.92c0-1.19-.59-1.83-1.83-1.83h-2.51c-1.14,0-1.83.64-1.83,1.83v3.88l11.06,3.56c.78.27,1.19.82,1.19,1.69v8.59c0,4.29-2.28,6.58-6.58,6.58h-5.12c-4.25,0-6.58-2.28-6.58-6.58v-2.97c0-.5.27-.73.73-.73h4.61c.5,0,.73.23.73.73v1.92c0,1.23.68,1.83,1.83,1.83h2.47c1.19,0,1.83-.59,1.83-1.83v-4.61l-10.96-3.56c-.82-.28-1.23-.82-1.23-1.69v-7.9c0-4.3,2.33-6.58,6.58-6.58h5.12Z"/>
    <path class="cls-1" d="M289.18,154.37c0-.46.27-.73.73-.73h10.96c4.29,0,6.58,2.28,6.58,6.58v8.95c0,4.25-2.28,6.53-6.58,6.58l-5.76.05v9.14c0,.46-.23.73-.73.73l-4.48-.05c-.46,0-.73-.27-.73-.73v-30.51ZM299.68,169.85c1.23,0,1.83-.69,1.83-1.83v-6.67c0-1.19-.59-1.83-1.83-1.83l-4.57.04v10.32l4.57-.04Z"/>
    <path class="cls-1" d="M311.56,160.21c0-4.3,2.28-6.58,6.58-6.58h5.12c4.29,0,6.58,2.28,6.58,6.58v18.82c0,4.29-2.28,6.58-6.58,6.58h-5.12c-4.29,0-6.58-2.28-6.58-6.58v-18.82ZM322.25,179.72c1.19,0,1.83-.59,1.83-1.83v-16.54c0-1.19-.64-1.83-1.83-1.83h-2.92c-1.19,0-1.83.64-1.83,1.83v16.54c0,1.23.64,1.83,1.83,1.83h2.92Z"/>
    <path class="cls-1" d="M352.67,169.39c0,2.65-.87,4.52-2.56,5.57l2.38,9.82c.14.55-.14.82-.64.82h-4.48c-.46,0-.68-.23-.78-.64l-2.19-9h-4.07v8.91c0,.46-.27.73-.73.73h-4.48c-.46,0-.73-.27-.73-.73v-30.51c0-.46.27-.73.73-.73h10.96c4.29,0,6.58,2.28,6.58,6.58v9.18ZM344.9,170.08c1.19,0,1.83-.64,1.83-1.83v-6.9c0-1.19-.64-1.83-1.83-1.83h-4.57v10.55h4.57Z"/>
    <path class="cls-1" d="M373.86,153.63c.5,0,.73.28.73.73v4.57c0,.46-.23.73-.73.73h-5.3v25.22c0,.5-.23.73-.73.73h-4.75c-.46,0-.73-.23-.73-.73v-25.22h-5.3c-.46,0-.73-.28-.73-.73v-4.57c0-.46.27-.73.73-.73h16.81Z"/>
    <path class="cls-1" d="M378.25,154.37c0-.46.27-.73.73-.73h10.96c4.29,0,6.58,2.28,6.58,6.58v8.95c0,4.25-2.28,6.53-6.58,6.58l-5.76.05v9.14c0,.46-.23.73-.73.73l-4.48-.05c-.46,0-.73-.27-.73-.73v-30.51ZM388.75,169.85c1.23,0,1.83-.69,1.83-1.83v-6.67c0-1.19-.59-1.83-1.83-1.83l-4.57.04v10.32l4.57-.04Z"/>
    <path class="cls-1" d="M414.56,185.61c-.41,0-.64-.23-.73-.64l-1.46-5.76h-8.59l-1.42,5.76c-.09.41-.32.64-.73.64h-4.48c-.5,0-.73-.27-.59-.78l7.58-30.56c.09-.46.37-.64.78-.64h6.35c.41,0,.68.18.78.64l7.58,30.56c.14.5-.09.78-.64.78h-4.43ZM408.08,161.49l-2.88,12.42h5.76l-2.88-12.42Z"/>
    <path class="cls-1" d="M441.15,169.39c0,2.65-.87,4.52-2.56,5.57l2.38,9.82c.14.55-.14.82-.64.82h-4.48c-.46,0-.69-.23-.78-.64l-2.19-9h-4.06v8.91c0,.46-.28.73-.73.73h-4.48c-.46,0-.73-.27-.73-.73v-30.51c0-.46.27-.73.73-.73h10.96c4.29,0,6.58,2.28,6.58,6.58v9.18ZM433.38,170.08c1.19,0,1.83-.64,1.83-1.83v-6.9c0-1.19-.64-1.83-1.83-1.83h-4.57v10.55h4.57Z"/>
    <path class="cls-1" d="M460.42,185.61c-.55,0-.82-.23-1.05-.69l-5.76-11.28-1.69,3.24v7.81c0,.59-.32.91-.91.91h-4.39c-.59,0-.91-.32-.91-.91v-30.15c0-.59.32-.91.91-.91h4.39c.59,0,.91.32.91.91v11.88l7.03-12.11c.23-.41.55-.69,1.05-.69h4.8c.69,0,1.01.5.64,1.1l-7.77,13.66,8.27,16.17c.32.59.04,1.05-.69,1.05h-4.84Z"/>
    <path class="cls-1" d="M500.98,153.63c.68,0,.96.37.82,1.01l-7.26,30.15c-.14.55-.46.82-1,.82h-4.57c-.55,0-.87-.27-1.01-.82l-7.22-30.15c-.14-.64.14-1.01.82-1.01h4.16c.55,0,.87.28,1,.82l4.52,20.65,4.57-20.65c.14-.55.46-.82,1.01-.82h4.16Z"/>
    <path class="cls-1" d="M517.15,185.61c-.41,0-.64-.23-.73-.64l-1.46-5.76h-8.59l-1.42,5.76c-.09.41-.32.64-.73.64h-4.48c-.5,0-.73-.27-.59-.78l7.58-30.56c.09-.46.36-.64.78-.64h6.35c.41,0,.69.18.78.64l7.58,30.56c.14.5-.09.78-.64.78h-4.43ZM510.67,161.49l-2.88,12.42h5.76l-2.88-12.42Z"/>
    <path class="cls-1" d="M544.7,153.63c.46,0,.73.28.73.73v30.51c0,.46-.28.73-.73.73h-3.61c-.41,0-.64-.18-.82-.59l-8.59-17.45v17.31c0,.46-.23.73-.73.73h-4.29c-.46,0-.73-.27-.73-.73v-30.51c0-.46.27-.73.73-.73h3.61c.41,0,.64.18.82.59l8.59,17.45v-17.31c0-.46.23-.73.73-.73h4.29Z"/>
    <path class="cls-1" d="M561.41,154.37c0-.46.23-.73.73-.73h10.96c4.29,0,6.58,2.33,6.58,6.62v18.78c0,4.29-2.28,6.58-6.58,6.58h-10.96c-.5,0-.73-.23-.73-.73v-30.51ZM571.83,179.58c1.19,0,1.83-.59,1.83-1.83v-16.22c0-1.23-.64-1.87-1.83-1.87h-4.2v19.92h4.2Z"/>
    <path class="cls-1" d="M602.48,158.93c0,.46-.18.78-.73.78h-11.28v7.03h8.59c.46,0,.73.28.73.78v4.52c0,.5-.27.78-.73.78h-8.59v6.76h11.28c.55,0,.73.23.73.73v4.57c0,.46-.18.73-.73.73h-16.81c-.41,0-.68-.27-.68-.73v-30.51c0-.46.27-.73.68-.73h16.81c.55,0,.73.28.73.73v4.57Z"/>
    <path class="cls-1" d="M635.09,153.63c.5,0,.73.28.73.73v4.57c0,.46-.23.73-.73.73h-5.3v25.22c0,.5-.23.73-.73.73h-4.75c-.46,0-.73-.23-.73-.73v-25.22h-5.3c-.46,0-.73-.28-.73-.73v-4.57c0-.46.28-.73.73-.73h16.81Z"/>
    <path class="cls-1" d="M639.02,160.21c0-4.3,2.28-6.58,6.58-6.58h5.12c4.29,0,6.58,2.28,6.58,6.58v18.82c0,4.29-2.28,6.58-6.58,6.58h-5.12c-4.29,0-6.58-2.28-6.58-6.58v-18.82ZM649.71,179.72c1.19,0,1.83-.59,1.83-1.83v-16.54c0-1.19-.64-1.83-1.83-1.83h-2.92c-1.19,0-1.83.64-1.83,1.83v16.54c0,1.23.64,1.83,1.83,1.83h2.92Z"/>
    <path class="cls-1" d="M680.08,158.93c0,.46-.18.78-.73.78h-11.28v7.03h8.59c.46,0,.73.28.73.78v4.52c0,.5-.27.78-.73.78h-8.59v6.76h11.28c.55,0,.73.23.73.73v4.57c0,.46-.18.73-.73.73h-16.81c-.41,0-.68-.27-.68-.73v-30.51c0-.46.27-.73.68-.73h16.81c.55,0,.73.28.73.73v4.57Z"/>
    <path class="cls-1" d="M699.36,185.61c-.55,0-.82-.23-1.05-.69l-5.76-11.28-1.69,3.24v7.81c0,.59-.32.91-.91.91h-4.39c-.59,0-.91-.32-.91-.91v-30.15c0-.59.32-.91.91-.91h4.39c.59,0,.91.32.91.91v11.88l7.03-12.11c.23-.41.55-.69,1.05-.69h4.8c.69,0,1.01.5.64,1.1l-7.77,13.66,8.27,16.17c.32.59.04,1.05-.69,1.05h-4.84Z"/>
    <path class="cls-1" d="M707.76,160.21c0-4.3,2.28-6.58,6.58-6.58h5.12c4.3,0,6.58,2.28,6.58,6.58v18.82c0,4.29-2.28,6.58-6.58,6.58h-5.12c-4.29,0-6.58-2.28-6.58-6.58v-18.82ZM718.45,179.72c1.19,0,1.83-.59,1.83-1.83v-16.54c0-1.19-.64-1.83-1.83-1.83h-2.92c-1.19,0-1.83.64-1.83,1.83v16.54c0,1.23.64,1.83,1.83,1.83h2.92Z"/>
    <path class="cls-1" d="M755.73,153.63c.59,0,.91.32.91.91v30.15c0,.59-.32.91-.91.91h-4.25c-.59,0-.91-.32-.91-.91v-17.95h-.32l-4.3,18.09c-.14.5-.46.78-1,.78h-2.69c-.55,0-.87-.27-1.01-.78l-4.29-18.09h-.32v17.95c0,.59-.32.91-.91.91h-4.2c-.59,0-.91-.32-.91-.91v-30.15c0-.59.32-.91.91-.91h6.03c.55,0,.87.28,1.01.78l5.07,20.37,5.07-20.37c.14-.5.46-.78,1.01-.78h6.03Z"/>
    <path class="cls-1" d="M772.9,153.63c4.3,0,6.58,2.28,6.58,6.58v3.01c0,.46-.23.73-.73.73h-4.61c-.46,0-.73-.28-.73-.73v-1.92c0-1.19-.59-1.83-1.83-1.83h-2.51c-1.14,0-1.83.64-1.83,1.83v3.88l11.06,3.56c.78.27,1.19.82,1.19,1.69v8.59c0,4.29-2.28,6.58-6.58,6.58h-5.12c-4.25,0-6.58-2.28-6.58-6.58v-2.97c0-.5.28-.73.73-.73h4.61c.5,0,.73.23.73.73v1.92c0,1.23.69,1.83,1.83,1.83h2.47c1.19,0,1.83-.59,1.83-1.83v-4.61l-10.96-3.56c-.82-.28-1.23-.82-1.23-1.69v-7.9c0-4.3,2.33-6.58,6.58-6.58h5.12Z"/>
    <path class="cls-1" d="M799.3,153.63c.5,0,.73.28.73.73v4.57c0,.46-.23.73-.73.73h-5.3v25.22c0,.5-.23.73-.73.73h-4.75c-.46,0-.73-.23-.73-.73v-25.22h-5.3c-.46,0-.73-.28-.73-.73v-4.57c0-.46.28-.73.73-.73h16.81Z"/>
  </g>
</svg>